<svg width="64" height="64" viewBox="0 0 64 64" fill="none" xmlns="http://www.w3.org/2000/svg">
<g clip-path="url(#clip0_1547_906)">
<rect width="64" height="64" rx="5" fill="#FF5630"/>
<path d="M23.7812 48.3333L10.3146 20.3333H15.7812L21.159 31.8889C21.6627 32.9852 22.1368 34.0519 22.5813 35.0889C23.0553 36.1259 23.5146 37.4296 23.959 39C24.4331 37.4593 24.9072 36.1556 25.3813 35.0889C25.885 34.0222 26.359 32.9556 26.8035 31.8889L32.1812 19.0889L37.5146 31.8889C37.959 32.9852 38.4183 34.0519 38.8924 35.0889C39.3664 36.1259 39.8257 37.4296 40.2701 39C40.7146 37.4296 41.1738 36.1259 41.6479 35.0889C42.122 34.0222 42.6109 32.9556 43.1146 31.8889L48.5812 20.3333H53.6924L40.2257 48.3333L34.8035 36.4222C34.3294 35.3556 33.8553 34.3037 33.3813 33.2667C32.9368 32.2 32.4775 30.9259 32.0035 29.4444C31.559 30.9259 31.0998 32.2 30.6257 33.2667C30.1516 34.3037 29.6627 35.3556 29.159 36.4222L23.7812 48.3333Z" fill="white"/>
</g>
<defs>
<clipPath id="clip0_1547_906">
<rect width="64" height="64" rx="5" fill="white"/>
</clipPath>
</defs>
</svg>
